<svg version="1.1" viewBox="0.0 0.0 960.0 540.0" fill="none" stroke="none" stroke-linecap="square" stroke-miterlimit="10" xmlns:xlink="http://www.w3.org/1999/xlink" xmlns="http://www.w3.org/2000/svg"><clipPath id="g238a99418c8_0_45.0"><path d="m0 0l960.0 0l0 540.0l-960.0 0l0 -540.0z" clip-rule="nonzero"/></clipPath><g clip-path="url(#g238a99418c8_0_45.0)"><path fill="#002845" d="m0 0l960.0 0l0 540.0l-960.0 0z" fill-rule="evenodd"/><path fill="#e898ac" d="m111.33675 121.64182l0 12.746223l12.721458 0l0 -12.746223z" fill-rule="evenodd"/><path fill="#e898ac" d="m818.8703 96.17689l0 12.746223l12.746216 0l0 -12.746223z" fill-rule="evenodd"/><path fill="#000000" fill-opacity="0.0" d="m552.0167 257.47314l6.0443726 0l0 6.044342l-6.0443726 0z" fill-rule="evenodd"/><path stroke="#e898ac" stroke-width="0.1443569553805774" stroke-miterlimit="9.1922" stroke-linecap="butt" d="m552.0167 257.47314l6.0443726 0l0 6.044342l-6.0443726 0z" fill-rule="evenodd"/><path fill="#000000" fill-opacity="0.0" d="m914.4408 506.19366l10.292175 0l0 10.316895l-10.292175 0z" fill-rule="evenodd"/><path stroke="#e898ac" stroke-width="0.3123359580052493" stroke-miterlimit="9.1922" stroke-linecap="butt" d="m914.4408 506.19366l10.292175 0l0 10.316895l-10.292175 0z" fill-rule="evenodd"/><path fill="#000000" fill-opacity="0.0" d="m28.941624 163.47078l6.0718575 0l0 6.044342l-6.0718575 0z" fill-rule="evenodd"/><path stroke="#00cfcc" stroke-width="0.3123359580052493" stroke-miterlimit="9.1922" stroke-linecap="butt" d="m28.941624 163.47078l6.0718575 0l0 6.044342l-6.0718575 0z" fill-rule="evenodd"/><path fill="#00cfcc" d="m867.5772 310.10046l0 10.949707l10.927673 0l0 -10.949707z" fill-rule="evenodd"/><path fill="#000000" fill-opacity="0.0" d="m867.58093 58.63956l19.827759 0l0 19.802998l-19.827759 0z" fill-rule="evenodd"/><path stroke="#ff9973" stroke-width="0.6036745406824147" stroke-miterlimit="9.1922" stroke-linecap="butt" d="m867.58093 58.63956l19.827759 0l0 19.802998l-19.827759 0z" fill-rule="evenodd"/><path fill="#000000" fill-opacity="0.0" d="m870.51373 4.4963155l13.984253 0l0 13.984255l-13.984253 0z" fill-rule="evenodd"/><path stroke="#ff9973" stroke-width="0.4330708661417323" stroke-miterlimit="9.1922" stroke-linecap="butt" d="m870.51373 4.4963155l13.984253 0l0 13.984255l-13.984253 0z" fill-rule="evenodd"/><path fill="#000000" fill-opacity="0.0" d="m873.2704 -45.60269l8.446167 0l0 8.473637l-8.446167 0z" fill-rule="evenodd"/><path stroke="#ff9973" stroke-width="0.2650918635170604" stroke-miterlimit="9.1922" stroke-linecap="butt" d="m873.2704 -45.60269l8.446167 0l0 8.473637l-8.446167 0z" fill-rule="evenodd"/><path fill="#ff9973" d="m890.92096 169.51512l0 8.446121l8.446167 0l0 -8.446121z" fill-rule="evenodd"/><path fill="#000000" fill-opacity="0.0" d="m324.48776 54.13585l10.292175 0l0 10.316933l-10.292175 0z" fill-rule="evenodd"/><path stroke="#e898ac" stroke-width="0.3123359580052493" stroke-miterlimit="9.1922" stroke-linecap="butt" d="m324.48776 54.13585l10.292175 0l0 10.316933l-10.292175 0z" fill-rule="evenodd"/><path fill="#ffd6e1" d="m329.62146 -56.024193l-0.4291687 93.92532l0.88586426 0l-0.45669556 -93.92532z" fill-rule="evenodd"/><path fill="#e898ac" d="m513.6768 31.41328l0 12.718712l12.721436 0l0 -12.718712z" fill-rule="evenodd"/><path fill="#ffd6e1" d="m520.8327 -35.704533l-0.45666504 58.19023l0.88586426 0l-0.42919922 -58.19023z" fill-rule="evenodd"/><path fill="#000000" fill-opacity="0.0" d="m26.311493 491.5271l19.803001 0l0 19.825012l-19.803001 0z" fill-rule="evenodd"/><path stroke="#ff9973" stroke-width="0.6036745406824147" stroke-miterlimit="9.1922" stroke-linecap="butt" d="m26.311493 491.5271l19.803001 0l0 19.825012l-19.803001 0z" fill-rule="evenodd"/><path fill="#000000" fill-opacity="0.0" d="m29.222242 437.40588l13.984255 0l0 13.9869995l-13.984255 0z" fill-rule="evenodd"/><path stroke="#ff9973" stroke-width="0.4330708661417323" stroke-miterlimit="9.1922" stroke-linecap="butt" d="m29.222242 437.40588l13.984255 0l0 13.9869995l-13.984255 0z" fill-rule="evenodd"/><path fill="#000000" fill-opacity="0.0" d="m31.978928 387.3069l8.446125 0l0 8.448853l-8.446125 0z" fill-rule="evenodd"/><path stroke="#ff9973" stroke-width="0.2650918635170604" stroke-miterlimit="9.1922" stroke-linecap="butt" d="m31.978928 387.3069l8.446125 0l0 8.448853l-8.446125 0z" fill-rule="evenodd"/><path fill="#ffd6e1" d="m36.20199 252.21288l-0.43193436 106.19008l0.8858795 0l-0.45394516 -106.19008z" fill-rule="evenodd"/><path fill="#ffd6e1" d="m938.5907 0.0010981627l-0.4539795 264.52606l0.8859253 0l-0.4319458 -264.52606z" fill-rule="evenodd"/><path fill="#ffd6e1" d="m68.3688 2.2515643l-0.45394135 177.33012l0.8831253 0l-0.42918396 -177.33012z" fill-rule="evenodd"/><path fill="#000000" fill-opacity="0.0" d="m214.03833 99.51407l6.0415955 0l0 6.069107l-6.0415955 0z" fill-rule="evenodd"/><path stroke="#00cfcc" stroke-width="0.3123359580052493" stroke-miterlimit="9.1922" stroke-linecap="butt" d="m214.03833 99.51407l6.0415955 0l0 6.069107l-6.0415955 0z" fill-rule="evenodd"/><path fill="#ffd6e1" d="m217.07289 18.260687l-0.45669556 72.65594l0.8858795 0l-0.42918396 -72.65594z" fill-rule="evenodd"/><path fill="#000000" fill-opacity="0.0" d="m163.95276 166.17586l632.0945 0l0 215.49605l-632.0945 0z" fill-rule="evenodd"/><path fill="#5efffd" d="m231.62543 273.2319q-6.03125 0 -9.25 -2.9375q-3.21875 -2.953125 -3.21875 -8.84375l0 -24.968735q0 -5.890625 3.21875 -8.828125q3.21875 -2.953125 9.25 -2.953125l9.359375 0l0 5.265625l-10.046875 0q-2.5625 0 -4.15625 1.53125q-1.59375 1.53125 -1.59375 3.671875l0 27.593735q0 2.15625 1.59375 3.6875q1.59375 1.515625 4.15625 1.515625l6.375 0l0 -15.04686l-5.8125 0l0 -5.203125l11.578125 0l0 25.51561l-11.453125 0zm32.939484 0q-6.109375 0 -8.95311 -2.59375q-2.828125 -2.609375 -2.828125 -8.5l0 -12.48436q0 -5.953125 2.5625 -8.515625q2.5624847 -2.5625 8.531235 -2.5625l1.859375 0q4.921875 0 7.453125 2.734375q2.53125 2.734375 2.53125 8.0l0 9.01561l-17.046875 0l0 5.203125q0 2.140625 1.3125 3.328125q1.3125 1.171875 3.890625 1.171875l9.625 0l0 5.203125l-8.9375 0zm5.40625 -20.10936l0 -5.203125q0 -1.796875 -1.1875 -2.96875q-1.171875 -1.1875 -2.96875 -1.1875l-2.640625 0q-2.5 0 -3.5 1.15625q-1.0 1.140625 -1.0 3.359375l0 4.84375l11.296875 0zm15.806885 -14.546875l5.546875 0l0 1.65625q2.140625 -1.65625 5.546875 -1.65625l1.796875 0q5.625 0 8.359375 2.640625q2.734375 2.625 2.734375 8.4375l0 23.57811l-5.890625 0l0 -24.95311q0 -2.078125 -1.21875 -3.296875q-1.203125 -1.21875 -3.28125 -1.21875l-3.1875 0q-2.296875 0 -3.40625 1.21875q-1.109375 1.21875 -1.109375 2.59375l0 25.656235l-5.890625 0l0 -34.656235zm52.827118 33.062485q-2.28125 1.59375 -5.546875 1.59375l-1.453125 0q-6.109375 0 -8.953125 -2.59375q-2.828125 -2.609375 -2.828125 -8.5l0 -12.48436q0 -5.8125 2.875 -8.4375q2.875 -2.640625 8.90625 -2.640625l6.65625 0l0 -13.875l5.890625 0l0 48.531235l-5.546875 0l0 -1.59375zm-4.859375 -3.609375q2.296875 0 3.40625 -1.203125q1.109375 -1.21875 1.109375 -2.609375l0 -20.45311l-7.34375 0q-2.578125 0 -3.890625 1.1875q-1.3125 1.171875 -1.3125 3.328125l0 15.249985q0 2.140625 1.3125 3.328125q1.3125 1.171875 3.890625 1.171875l2.828125 0zm32.592743 5.203125q-6.109375 0 -8.953125 -2.59375q-2.828125 -2.609375 -2.828125 -8.5l0 -12.48436q0 -5.953125 2.5625 -8.515625q2.5625 -2.5625 8.53125 -2.5625l1.859375 0q4.921875 0 7.453125 2.734375q2.53125 2.734375 2.53125 8.0l0 9.01561l-17.046875 0l0 5.203125q0 2.140625 1.3125 3.328125q1.3125 1.171875 3.890625 1.171875l9.625 0l0 5.203125l-8.9375 0zm5.40625 -20.10936l0 -5.203125q0 -1.796875 -1.1875 -2.96875q-1.171875 -1.1875 -2.96875 -1.1875l-2.640625 0q-2.5 0 -3.5 1.15625q-1.0 1.140625 -1.0 3.359375l0 4.84375l11.296875 0zm15.806885 -14.546875l5.546875 0l0 1.859375q2.28125 -1.859375 5.546875 -1.859375l5.0625 0l0 5.53125l-5.75 0q-2.296875 0 -3.40625 1.53125q-1.109375 1.53125 -1.109375 2.984375l0 24.60936l-5.890625 0l0 -34.656235z" fill-rule="nonzero"/><path fill="#ffffff" d="m441.21008 253.12254l-6.171875 0l0 20.10936l-6.03125 0l0 -48.531235l12.40625 0q5.90625 0 8.921875 2.609375q3.015625 2.59375 3.015625 8.203125l0 6.65625q0 7.84375 -6.25 9.78125l9.640625 21.281235l-6.59375 0l-8.9375 -20.10936zm6.109375 -18.234375q0 -2.625 -1.21875 -3.796875q-1.21875 -1.1875 -3.84375 -1.1875l-7.21875 0l0 18.015625l7.21875 0q2.625 0 3.84375 -1.203125q1.21875 -1.21875 1.21875 -3.84375l0 -7.984375zm28.488098 38.343735q-6.109375 0 -8.953125 -2.59375q-2.828125 -2.609375 -2.828125 -8.5l0 -12.48436q0 -5.953125 2.5625 -8.515625q2.5625 -2.5625 8.53125 -2.5625l1.859375 0q4.921875 0 7.453125 2.734375q2.53125 2.734375 2.53125 8.0l0 9.01561l-17.046875 0l0 5.203125q0 2.140625 1.3125 3.328125q1.3125 1.171875 3.890625 1.171875l9.625 0l0 5.203125l-8.9375 0zm5.40625 -20.10936l0 -5.203125q0 -1.796875 -1.1875 -2.96875q-1.171875 -1.1875 -2.96875 -1.1875l-2.640625 0q-2.5 0 -3.5 1.15625q-1.0 1.140625 -1.0 3.359375l0 4.84375l11.296875 0zm26.900635 20.10936q-6.109375 0 -8.953125 -2.59375q-2.828125 -2.609375 -2.828125 -8.5l0 -12.48436q0 -5.8125 2.875 -8.4375q2.875 -2.640625 8.90625 -2.640625l7.5625 0l0 5.1875l-8.25 0q-2.578125 0 -3.890625 1.1875q-1.3125 1.171875 -1.3125 3.328125l0 15.249985q0 2.140625 1.3125 3.328125q1.3125 1.171875 3.890625 1.171875l8.25 0l0 5.203125l-7.5625 0zm39.656067 -11.09375q0 5.828125 -2.875 8.46875q-2.875 2.625 -8.90625 2.625l-0.90625 0q-6.03125 0 -8.90625 -2.625q-2.875 -2.640625 -2.875 -8.46875l0 -12.48436q0 -5.8125 2.875 -8.4375q2.875 -2.640625 8.90625 -2.640625l0.90625 0q6.03125 0 8.90625 2.640625q2.875 2.625 2.875 8.4375l0 12.48436zm-5.890625 -13.85936q0 -2.15625 -1.328125 -3.328125q-1.3125 -1.1875 -3.875 -1.1875l-2.28125 0q-2.578125 0 -3.890625 1.1875q-1.3125 1.171875 -1.3125 3.328125l0 15.249985q0 2.140625 1.3125 3.328125q1.3125 1.171875 3.890625 1.171875l2.28125 0q2.5625 0 3.875 -1.171875q1.328125 -1.1875 1.328125 -3.328125l0 -15.249985zm41.522522 27.374985q0 4.71875 -2.8125 7.03125q-2.796875 2.328125 -8.765625 2.328125l-14.0 0l0 -5.1875l14.6875 0q2.5 0 3.75 -0.984375q1.25 -0.96875 1.25 -2.484375l0 -2.21875q0 -1.59375 -1.25 -2.53125q-1.25 -0.9375 -3.75 -0.9375l-11.578125 0l0 -9.5625q-2.28125 -1.25 -3.390625 -3.609375q-1.109375 -2.3593597 -1.109375 -6.1093597l0 -1.734375q0 -5.8125 2.875 -8.4375q2.875 -2.640625 8.90625 -2.640625l14.140625 0l0 12.8125q0 5.2031097 -2.84375 8.156235q-2.828125 2.9375 -7.546875 2.9375l-5.125 0l0 2.984375l4.984375 0q5.96875 0 8.765625 2.328125q2.8125 2.3125 2.8125 7.03125l0 0.828125zm-11.4375 -18.375q2.140625 0 3.25 -1.3749847q1.109375 -1.390625 1.25 -2.921875l0 -9.21875l-8.9375 0q-2.5625 0 -3.890625 1.1875q-1.3125 1.171875 -1.3125 3.328125l0 4.5q0 2.15625 1.3125 3.3281097q1.328125 1.171875 3.890625 1.171875l4.4375 0zm20.451172 -18.70311l5.546875 0l0 1.65625q2.140625 -1.65625 5.546875 -1.65625l1.796875 0q5.625 0 8.359375 2.640625q2.734375 2.625 2.734375 8.4375l0 23.57811l-5.890625 0l0 -24.95311q0 -2.078125 -1.21875 -3.296875q-1.203125 -1.21875 -3.28125 -1.21875l-3.1875 0q-2.296875 0 -3.40625 1.21875q-1.109375 1.21875 -1.109375 2.59375l0 25.656235l-5.890625 0l0 -34.656235zm34.389587 -7.640625l0 -6.234375l6.578125 0l0 6.234375l-6.578125 0zm0.34375 42.29686l0 -34.656235l5.890625 0l0 34.656235l-5.890625 0zm24.610413 0q-3.53125 0 -5.40625 -2.28125q-1.875 -2.296875 -1.875 -6.03125l0 -21.156235l-4.5 0l0 -5.1875l4.5 0l0 -8.328125l5.890625 0l0 8.328125l8.046875 0l0 5.1875l-8.046875 0l0 21.499985q0 1.515625 0.765625 2.140625q0.765625 0.625 2.359375 0.625l4.921875 0l0 5.203125l-6.65625 0zm13.592285 -42.29686l0 -6.234375l6.578125 0l0 6.234375l-6.578125 0zm0.34375 42.29686l0 -34.656235l5.890625 0l0 34.656235l-5.890625 0zm40.766663 -11.09375q0 5.828125 -2.875 8.46875q-2.875 2.625 -8.90625 2.625l-0.90625 0q-6.03125 0 -8.90625 -2.625q-2.875 -2.640625 -2.875 -8.46875l0 -12.48436q0 -5.8125 2.875 -8.4375q2.875 -2.640625 8.90625 -2.640625l0.90625 0q6.03125 0 8.90625 2.640625q2.875 2.625 2.875 8.4375l0 12.48436zm-5.890625 -13.85936q0 -2.15625 -1.328125 -3.328125q-1.3125 -1.1875 -3.875 -1.1875l-2.28125 0q-2.578125 0 -3.890625 1.1875q-1.3125 1.171875 -1.3125 3.328125l0 15.249985q0 2.140625 1.3125 3.328125q1.3125 1.171875 3.890625 1.171875l2.28125 0q2.5625 0 3.875 -1.171875q1.328125 -1.1875 1.328125 -3.328125l0 -15.249985zm16.288086 -9.703125l5.546875 0l0 1.65625q2.140625 -1.65625 5.546875 -1.65625l1.796875 0q5.625 0 8.359375 2.640625q2.734375 2.625 2.734375 8.4375l0 23.57811l-5.890625 0l0 -24.95311q0 -2.078125 -1.21875 -3.296875q-1.203125 -1.21875 -3.28125 -1.21875l-3.1875 0q-2.296875 0 -3.40625 1.21875q-1.109375 1.21875 -1.109375 2.59375l0 25.656235l-5.890625 0l0 -34.656235z" fill-rule="nonzero"/><path fill="#ffffff" d="m397.2199 345.13815q0 5.828125 -2.875 8.46875q-2.875 2.625 -8.90625 2.625l-12.203125 0l0 -48.53125l5.890625 0l0 15.25q2.078125 -1.375 5.203125 -1.375l1.109375 0q6.09375 0 8.9375 2.59375q2.84375 2.59375 2.84375 8.484375l0 12.484375zm-13.578125 -18.375q-2.296875 0 -3.40625 1.21875q-1.109375 1.21875 -1.109375 2.59375l0 20.453125l7.0 0q2.5625 0 3.875 -1.171875q1.328125 -1.1875 1.328125 -3.328125l0 -15.25q0 -2.15625 -1.328125 -3.328125q-1.3125 -1.1875 -3.875 -1.1875l-2.484375 0zm37.018616 32.515625q-0.8437805 3.125 -1.7500305 5.03125q-0.890625 1.90625 -2.515625 2.96875q-1.625 1.078125 -4.34375 1.078125q-1.453125 0 -3.9375 -0.40625l0 -5.0625q1.9375 0.28125 3.59375 0.28125q1.953125 0 2.78125 -3.125l1.109375 -3.8125l-1.390625 0l-10.75 -34.65625l6.375 0l8.046875 28.625l6.7969055 -28.625l6.03125 0l-10.046875 37.703125z" fill-rule="nonzero"/><path fill="#fc723f" d="m471.33145 356.2319l-8.25 0l-9.5 -48.53125l6.109375 0l7.625 42.4375l8.25 -42.4375l5.953125 0l-10.1875 48.53125zm39.86844 -11.09375q0 5.828125 -2.875 8.46875q-2.875 2.625 -8.90625 2.625l-0.90625 0q-6.03125 0 -8.90625 -2.625q-2.875 -2.640625 -2.875 -8.46875l0 -12.484375q0 -5.8125 2.875 -8.4375q2.875 -2.640625 8.90625 -2.640625l0.90625 0q6.03125 0 8.90625 2.640625q2.875 2.625 2.875 8.4375l0 12.484375zm-5.890625 -13.859375q0 -2.15625 -1.328125 -3.328125q-1.3125 -1.1875 -3.875 -1.1875l-2.28125 0q-2.578125 0 -3.890625 1.1875q-1.3125 1.171875 -1.3125 3.328125l0 15.25q0 2.140625 1.3125 3.328125q1.3125 1.171875 3.890625 1.171875l2.28125 0q2.5625 0 3.875 -1.171875q1.328125 -1.1875 1.328125 -3.328125l0 -15.25zm15.944336 -17.34375l0 -6.234375l6.578125 0l0 6.234375l-6.578125 0zm0.34375 42.296875l0 -34.65625l5.890625 0l0 34.65625l-5.890625 0zm28.079163 0q-6.109375 0 -8.953125 -2.59375q-2.828125 -2.609375 -2.828125 -8.5l0 -12.484375q0 -5.8125 2.875 -8.4375q2.875 -2.640625 8.90625 -2.640625l7.5625 0l0 5.1875l-8.25 0q-2.578125 0 -3.890625 1.1875q-1.3125 1.171875 -1.3125 3.328125l0 15.25q0 2.140625 1.3125 3.328125q1.3125 1.171875 3.890625 1.171875l8.25 0l0 5.203125l-7.5625 0zm26.968567 0q-6.109375 0 -8.953125 -2.59375q-2.828125 -2.609375 -2.828125 -8.5l0 -12.484375q0 -5.953125 2.5625 -8.515625q2.5625 -2.5625 8.53125 -2.5625l1.859375 0q4.921875 0 7.453125 2.734375q2.53125 2.734375 2.53125 8.0l0 9.015625l-17.046875 0l0 5.203125q0 2.140625 1.3125 3.328125q1.3125 1.171875 3.890625 1.171875l9.625 0l0 5.203125l-8.9375 0zm5.40625 -20.109375l0 -5.203125q0 -1.796875 -1.1875 -2.96875q-1.171875 -1.1875 -2.96875 -1.1875l-2.640625 0q-2.5 0 -3.5 1.15625q-1.0 1.140625 -1.0 3.359375l0 4.84375l11.296875 0z" fill-rule="nonzero"/><path fill="#e898ac" d="m201.29211 495.06512l0 12.746216l12.746216 0l0 -12.746216z" fill-rule="evenodd"/><path fill="#000000" fill-opacity="0.0" d="m739.94165 371.42706l6.069092 0l0 6.069092l-6.069092 0z" fill-rule="evenodd"/><path stroke="#e898ac" stroke-width="0.1443569553805774" stroke-miterlimit="9.1922" stroke-linecap="butt" d="m739.94165 371.42706l6.069092 0l0 6.069092l-6.069092 0z" fill-rule="evenodd"/><path fill="#000000" fill-opacity="0.0" d="m242.30008 315.21393l10.924942 0l0 10.949707l-10.924942 0z" fill-rule="evenodd"/><path stroke="#00cfcc" stroke-width="0.3123359580052493" stroke-miterlimit="9.1922" stroke-linecap="butt" d="m242.30008 315.21393l10.924942 0l0 10.949707l-10.924942 0z" fill-rule="evenodd"/><path fill="#ff9973" d="m660.6856 87.73076l0 8.446129l8.446167 0l0 -8.446129z" fill-rule="evenodd"/><path fill="#ff9973" d="m626.7223 327.43335l0 12.59491l12.592163 0l0 -12.59491z" fill-rule="evenodd"/><path fill="#ff9973" d="m307.00702 451.6781l0 12.592163l12.59491 0l0 -12.592163z" fill-rule="evenodd"/><path fill="#e898ac" d="m654.31116 488.0111l0 12.7187195l12.746216 0l0 -12.7187195z" fill-rule="evenodd"/><path fill="#ffd6e1" d="m660.6856 388.0662l-0.45666504 91.625336l0.91064453 0l-0.4539795 -91.625336z" fill-rule="evenodd"/><path fill="#000000" fill-opacity="0.0" d="m711.87134 226.44257l13.984253 0l0 13.984253l-13.984253 0z" fill-rule="evenodd"/><path stroke="#ff9973" stroke-width="0.4330708661417323" stroke-miterlimit="9.1922" stroke-linecap="butt" d="m711.87134 226.44257l13.984253 0l0 13.984253l-13.984253 0z" fill-rule="evenodd"/><path fill="#ffd6e1" d="m718.8511 35.45557l-0.42913818 177.98767l0.8831177 0l-0.4539795 -177.98767z" fill-rule="evenodd"/><path fill="#00cfcc" d="m168.89421 410.47458l0 20.911713l20.914474 0l0 -20.911713z" fill-rule="evenodd"/><path fill="#00cfcc" d="m173.87659 343.25497l0 10.924927l10.924942 0l0 -10.924927z" fill-rule="evenodd"/><path fill="#ffd6e1" d="m179.34044 134.38805l-0.43193054 188.35686l0.8858795 0l-0.45394897 -188.35686z" fill-rule="evenodd"/><path fill="#ffd6e1" d="m247.77339 388.06866l-0.45394897 264.52606l0.88313293 0l-0.42918396 -264.52606z" fill-rule="evenodd"/><path fill="#ffd6e1" d="m782.2273 362.7278l-0.4319458 177.32736l0.8859253 0l-0.4539795 -177.32736z" fill-rule="evenodd"/><path fill="#00cfcc" d="m840.7477 425.16586l0 20.88974l20.886963 0l0 -20.88974z" fill-rule="evenodd"/><path fill="#ffd6e1" d="m851.19116 221.41064l-0.45666504 188.32935l0.88586426 0l-0.42919922 -188.32935z" fill-rule="evenodd"/></g></svg>